HIERARCHY
ROOT Pelvis
{
	OFFSET 0.000000 0.000000 0.000000
	CHANNELS 6 Xposition Yposition Zposition Xrotation Yrotation Zrotation
	JOINT LeftUpLeg_virtual
	{
		OFFSET 0.000000 0.000000 0.000000
		CHANNELS 3 Xrotation Yrotation Zrotation
		JOINT LeftUpLeg
		{
			OFFSET 18.735201 -5.666702 -4.541200
			CHANNELS 3 Xrotation Yrotation Zrotation
			JOINT LeftLeg
			{
				OFFSET -0.021200 -31.938179 0.493100
				CHANNELS 3 Xrotation Yrotation Zrotation
				JOINT LeftFoot
				{
					OFFSET 0.021200 -31.938179 -4.336299
					CHANNELS 3 Xrotation Yrotation Zrotation
					JOINT LeftToeBase
					{
						OFFSET 0.943001 -26.722000 15.023500
						CHANNELS 3 Xrotation Yrotation Zrotation
						End Site
						{
							OFFSET 0 0 0
						}
					}
				}
			}
		}
	}
	JOINT RightUpLeg_virtual
	{
		OFFSET 0.000000 0.000000 0.000000
		CHANNELS 3 Xrotation Yrotation Zrotation
		JOINT RightUpLeg
		{
			OFFSET -18.735201 -5.666702 -4.541200
			CHANNELS 3 Xrotation Yrotation Zrotation
			JOINT RightLeg
			{
				OFFSET 0.018946 -31.938133 0.493100
				CHANNELS 3 Xrotation Yrotation Zrotation
				JOINT RightFoot
				{
					OFFSET -0.018946 -31.938126 -4.336299
					CHANNELS 3 Xrotation Yrotation Zrotation
					JOINT RightToeBase
					{
						OFFSET -0.943001 -26.722004 15.023500
						CHANNELS 3 Xrotation Yrotation Zrotation
						End Site
						{
							OFFSET 0 0 0
						}
					}
				}
			}
		}
	}
	JOINT Hips_virtual
	{
		OFFSET 0.000000 0.000000 0.000000
		CHANNELS 3 Xrotation Yrotation Zrotation
		JOINT Hips
		{
			OFFSET -0.000000 -0.000000 -0.000000
			CHANNELS 3 Xrotation Yrotation Zrotation
			JOINT Spine
			{
				OFFSET 0.000000 10.199997 -0.299500
				CHANNELS 3 Xrotation Yrotation Zrotation
				JOINT Spine1
				{
					OFFSET 0.000000 11.900002 -1.516600
					CHANNELS 3 Xrotation Yrotation Zrotation
					JOINT Spine2
					{
						OFFSET 0.000000 13.600006 -2.842500
						CHANNELS 3 Xrotation Yrotation Zrotation
						JOINT Neck_virtual
						{
							OFFSET 0.000000 0.000000 0.000000
							CHANNELS 3 Xrotation Yrotation Zrotation
							JOINT Neck
							{
								OFFSET 0.000000 9.624100 -2.890100
								CHANNELS 3 Xrotation Yrotation Zrotation
								JOINT Head
								{
									OFFSET 0.000000 14.068802 -1.351900
									CHANNELS 3 Xrotation Yrotation Zrotation
									End Site
									{
										OFFSET 0 0 0
									}
								}
							}
						}
						JOINT LeftShoulder_virtual
						{
							OFFSET 0.000000 0.000000 0.000000
							CHANNELS 3 Xrotation Yrotation Zrotation
							JOINT LeftShoulder
							{
								OFFSET 15.263000 10.923401 -0.547700
								CHANNELS 3 Xrotation Yrotation Zrotation
								JOINT LeftArm
								{
									OFFSET 25.438599 -2.830597 -13.032500
									CHANNELS 3 Xrotation Yrotation Zrotation
									JOINT LeftForeArm
									{
										OFFSET 29.960503 0.000000 0.000000
										CHANNELS 3 Xrotation Yrotation Zrotation
										JOINT LeftHand
										{
											OFFSET 27.849251 0.000000 0.000000
											CHANNELS 3 Xrotation Yrotation Zrotation
											End Site
											{
												OFFSET 0 0 0
											}
										}
									}
								}
							}
						}
						JOINT RightShoulder_virtual
						{
							OFFSET 0.000000 0.000000 0.000000
							CHANNELS 3 Xrotation Yrotation Zrotation
							JOINT RightShoulder
							{
								OFFSET -15.263000 10.923401 -0.547700
								CHANNELS 3 Xrotation Yrotation Zrotation
								JOINT RightArm
								{
									OFFSET -25.438599 -2.830597 -13.032500
									CHANNELS 3 Xrotation Yrotation Zrotation
									JOINT RightForeArm
									{
										OFFSET -29.960503 0.000000 0.000000
										CHANNELS 3 Xrotation Yrotation Zrotation
										JOINT RightHand
										{
											OFFSET -27.849251 0.000000 0.000000
											CHANNELS 3 Xrotation Yrotation Zrotation
											End Site
											{
												OFFSET 0 0 0
											}
										}
									}
								}
							}
						}
					}
				}
			}
		}
	}
}
MOTION
Frames: 10
Frame Time: 0.03333333
-0.883249 91.148026 3.291763 0.000000 0.000000 0.000000 2.370995 -5.657838 -2.376895 -39.837789 9.450101 15.304448 38.029400 3.646926 1.184102 -10.793535 3.015835 -1.118043 0.000000 0.000000 0.000000 4.634853 -27.771384 3.097179 -26.561643 -12.748347 -14.787185 34.657319 0.548934 -3.442435 -15.502725 -1.475091 5.803456 0.000000 0.000000 0.000000 -0.856227 -12.620160 0.371406 0.633041 -8.403801 -0.913978 4.831244 -1.513094 0.366276 1.465531 -0.401716 0.090707 0.000000 0.000000 0.000000 1.934827 0.387539 0.376316 -0.943672 0.736662 0.561008 0.000000 0.000000 0.000000 1.071933 0.588680 0.877180 0.301193 -1.182538 0.946291 -41.674085 -16.110919 -54.658893 -21.044410 -71.371590 -17.869098 0.000000 0.000000 0.000000 0.712461 -2.019195 0.265044 0.108441 -0.291897 5.945763 -25.283023 48.267154 48.022357 177.482834 72.516924 -177.155422 0.000000 0.000000 0.000000 
-0.890363 91.152153 3.330898 0.000000 0.000000 0.000000 2.269723 -5.526983 -2.456295 -39.973283 9.488789 15.253037 38.156783 3.640982 1.232844 -10.711274 2.984053 -1.057204 0.000000 0.000000 0.000000 4.594831 -27.900998 3.093599 -26.610610 -12.776116 -14.786786 34.692307 0.548643 -3.451887 -15.477513 -1.464653 5.776139 0.000000 0.000000 0.000000 -0.896445 -12.679301 0.381813 0.551104 -8.422743 -0.875290 4.843305 -1.536851 0.314560 1.473273 -0.393067 0.088886 0.000000 0.000000 0.000000 1.935370 0.397390 0.361385 -0.941260 0.749843 0.561407 0.000000 0.000000 0.000000 1.040349 0.593616 0.863030 0.292101 -1.100859 0.977098 -41.877662 -16.170186 -54.609370 -21.196684 -71.471946 -18.036067 0.000000 0.000000 0.000000 0.688689 -2.059287 0.273418 0.136906 -0.490184 5.960371 -25.365287 48.556580 47.845735 177.574632 72.188857 -177.266126 0.000000 0.000000 0.000000 
-0.906948 91.158089 3.400315 0.000000 0.000000 0.000000 2.082232 -5.291310 -2.608819 -40.223455 9.561071 15.151069 38.386835 3.636381 1.323102 -10.564327 2.932000 -0.940839 0.000000 0.000000 0.000000 4.524729 -28.134751 3.087868 -26.696588 -12.826740 -14.784954 34.762541 0.549500 -3.463024 -15.426208 -1.446935 5.737259 0.000000 0.000000 0.000000 -0.974449 -12.803815 0.402228 0.410014 -8.447928 -0.798730 4.853033 -1.572348 0.221471 1.486163 -0.377141 0.083986 0.000000 0.000000 0.000000 1.929463 0.419864 0.334271 -0.937368 0.773634 0.562752 0.000000 0.000000 0.000000 0.979937 0.601355 0.834949 0.273000 -0.965689 1.032092 -42.246472 -16.263824 -54.506197 -21.492068 -71.654231 -18.357704 0.000000 0.000000 0.000000 0.644687 -2.131144 0.287882 0.185248 -0.852338 5.978217 -25.560906 49.076340 47.544117 177.747614 71.611146 -177.470499 0.000000 0.000000 0.000000 
-0.935472 91.163017 3.483711 0.000000 0.000000 0.000000 1.835416 -4.990245 -2.821791 -40.552182 9.658913 15.002895 38.674768 3.644094 1.442503 -10.384432 2.877918 -0.779017 0.000000 0.000000 0.000000 4.440253 -28.430802 3.081814 -26.800262 -12.891973 -14.780606 34.865548 0.554107 -3.464743 -15.349880 -1.426202 5.710127 0.000000 0.000000 0.000000 -1.082793 -12.999927 0.432917 0.249643 -8.458491 -0.686691 4.841643 -1.601405 0.104276 1.499984 -0.356548 0.074619 0.000000 0.000000 0.000000 1.908275 0.458374 0.299507 -0.932944 0.803479 0.565760 0.000000 0.000000 0.000000 0.896329 0.608710 0.794509 0.243563 -0.821784 1.100901 -42.718848 -16.352718 -54.347293 -21.917543 -71.890541 -18.815687 0.000000 0.000000 0.000000 0.587370 -2.220959 0.304942 0.240210 -1.321231 5.983263 -25.913490 49.729740 47.203697 177.986028 70.910491 -177.742682 0.000000 0.000000 0.000000 
-0.976006 91.165894 3.561526 0.000000 0.000000 0.000000 1.562344 -4.658881 -3.076638 -40.916866 9.774337 14.819193 38.965741 3.673372 1.576649 -10.209890 2.839526 -0.585729 0.000000 0.000000 0.000000 4.356820 -28.743430 3.076178 -26.901552 -12.962416 -14.773870 34.992743 0.565596 -3.448746 -15.254755 -1.405170 5.714026 0.000000 0.000000 0.000000 -1.206825 -13.264142 0.475726 0.115222 -8.432007 -0.545197 4.799233 -1.608002 -0.018222 1.510468 -0.334611 0.060653 0.000000 0.000000 0.000000 1.867888 0.514258 0.261966 -0.927835 0.833926 0.570800 0.000000 0.000000 0.000000 0.798148 0.613000 0.745950 0.205718 -0.712903 1.173356 -43.231085 -16.398869 -54.140454 -22.462873 -72.154159 -19.393738 0.000000 0.000000 0.000000 0.526460 -2.313668 0.321468 0.289731 -1.833821 5.963802 -26.450317 50.413988 46.916084 178.273224 70.219331 -178.055928 0.000000 0.000000 0.000000 
-1.025514 91.168251 3.618182 0.000000 0.000000 0.000000 1.295473 -4.315589 -3.350728 -41.277429 9.901397 14.617231 39.208643 3.727127 1.711918 -10.074915 2.827625 -0.377977 0.000000 0.000000 0.000000 4.284933 -29.032972 3.069610 -26.984648 -13.029254 -14.766649 35.128780 0.586543 -3.413988 -15.152923 -1.383587 5.755333 0.000000 0.000000 0.000000 -1.326539 -13.575077 0.533414 0.041589 -8.350677 -0.386545 4.732525 -1.584446 -0.130933 1.514878 -0.314414 0.043814 0.000000 0.000000 0.000000 1.813108 0.585341 0.225634 -0.920291 0.859971 0.577595 0.000000 0.000000 0.000000 0.696678 0.613333 0.696411 0.164009 -0.666755 1.242508 -43.734490 -16.377393 -53.906896 -23.122697 -72.426247 -20.081028 0.000000 0.000000 0.000000 0.473195 -2.396698 0.335902 0.328044 -2.335275 5.918412 -27.157843 51.047352 46.747696 178.591169 69.641223 -178.385034 0.000000 0.000000 0.000000 
-1.079396 91.172821 3.650051 0.000000 0.000000 0.000000 1.060819 -3.960892 -3.620451 -41.602566 10.036295 14.417880 39.369719 3.800230 1.837134 -9.999255 2.843202 -0.174448 0.000000 0.000000 0.000000 4.229419 -29.270246 3.059018 -27.039165 -13.085279 -14.762107 35.255234 0.617755 -3.367119 -15.059240 -1.358896 5.825637 0.000000 0.000000 0.000000 -1.422961 -13.893228 0.607284 0.040413 -8.204170 -0.230183 4.662434 -1.532559 -0.225705 1.512859 -0.297916 0.027082 0.000000 0.000000 0.000000 1.756232 0.666560 0.193042 -0.907457 0.878196 0.585355 0.000000 0.000000 0.000000 0.604654 0.611045 0.654643 0.124345 -0.688913 1.305836 -44.200432 -16.281385 -53.676828 -23.888715 -72.694236 -20.865362 0.000000 0.000000 0.000000 0.438512 -2.462031 0.348501 0.357549 -2.786353 5.855837 -27.975898 51.582705 46.719747 178.917803 69.236507 -178.705097 0.000000 0.000000 0.000000 
-1.134038 91.180626 3.669654 0.000000 0.000000 0.000000 0.874754 -3.586312 -3.864829 -41.871993 10.176080 14.240707 39.440470 3.881280 1.944165 -9.982915 2.878720 0.006597 0.000000 0.000000 0.000000 4.192700 -29.436917 3.041540 -27.057458 -13.125690 -14.763194 35.356768 0.657393 -3.319287 -14.986058 -1.328445 5.906520 0.000000 0.000000 0.000000 -1.485483 -14.170944 0.694454 0.096819 -7.989884 -0.099571 4.613558 -1.460364 -0.301565 1.506167 -0.285759 0.013332 0.000000 0.000000 0.000000 1.712044 0.751931 0.165419 -0.886532 0.887236 0.593304 0.000000 0.000000 0.000000 0.533962 0.609297 0.628731 0.091848 -0.766854 1.365323 -44.615093 -16.120187 -53.478803 -24.734926 -72.946577 -21.718494 0.000000 0.000000 0.000000 0.431114 -2.506552 0.360572 0.386961 -3.164775 5.789993 -28.814386 52.007669 46.806364 179.225803 69.025960 -178.990845 0.000000 0.000000 0.000000 
-1.188449 91.188728 3.703248 0.000000 0.000000 0.000000 0.744070 -3.186457 -4.068533 -42.075198 10.317149 14.099542 39.436454 3.956691 2.028065 -10.008574 2.922162 0.150315 0.000000 0.000000 0.000000 4.179495 -29.524842 3.017267 -27.030882 -13.149027 -14.770890 35.426654 0.700824 -3.281438 -14.938604 -1.291803 5.977487 0.000000 0.000000 0.000000 -1.515243 -14.368835 0.786775 0.177328 -7.712261 -0.014852 4.602303 -1.377386 -0.362222 1.497179 -0.277960 0.004050 0.000000 0.000000 0.000000 1.692284 0.836356 0.143183 -0.855977 0.887443 0.601236 0.000000 0.000000 0.000000 0.492996 0.612031 0.623931 0.069079 -0.879543 1.426996 -44.970990 -15.914197 -53.328792 -25.605811 -73.168224 -22.583568 0.000000 0.000000 0.000000 0.455937 -2.531328 0.373265 0.426725 -3.463556 5.733851 -29.582690 52.335139 46.947995 179.485050 69.002819 -179.219069 0.000000 0.000000 0.000000 
-1.244056 91.190506 3.782240 0.000000 0.000000 0.000000 0.668345 -2.766992 -4.223709 -42.208578 10.454823 14.000021 39.388137 4.015062 2.087122 -10.050325 2.961614 0.248076 0.000000 0.000000 0.000000 4.199572 -29.535797 2.991361 -26.948228 -13.157924 -14.782780 35.468039 0.741424 -3.260744 -14.913961 -1.251775 6.022598 0.000000 0.000000 0.000000 -1.521703 -14.468950 0.872767 0.243616 -7.384363 0.015469 4.630458 -1.291507 -0.412610 1.487239 -0.274972 -0.001210 0.000000 0.000000 0.000000 1.702578 0.916203 0.126301 -0.816174 0.880012 0.609655 0.000000 0.000000 0.000000 0.484682 0.622727 0.641520 0.055434 -1.006646 1.499640 -45.262175 -15.688446 -53.225212 -26.419223 -73.341151 -23.377062 0.000000 0.000000 0.000000 0.513393 -2.540513 0.386774 0.484182 -3.688283 5.695484 -30.214284 52.590783 47.071123 179.667361 69.145174 -179.372406 0.000000 0.000000 0.000000 
